<?xml version="1.0" encoding="utf-8"?>
<svg viewBox="2.175 61.877 21.707 23.962" xmlns="http://www.w3.org/2000/svg">
  <path id="path10" fill="#1573FF" d="M 11.462 62.294 C 12.432 61.738 13.626 61.738 14.595 62.294 L 22.315 66.727 C 23.285 67.284 23.882 68.311 23.882 69.426 L 23.882 78.291 C 23.882 79.404 23.285 80.433 22.315 80.988 L 14.595 85.422 C 13.626 85.978 12.432 85.978 11.462 85.422 L 3.742 80.988 C 2.772 80.433 2.175 79.404 2.175 78.291 L 2.175 69.426 C 2.175 68.311 2.772 67.284 3.742 66.727 L 11.462 62.294 Z" style=""/>
  <path id="path12" fill="white" d="M 21.276 78.19 L 20.042 78.19 L 19.927 78.175 L 19.87 78.175 C 17.907 77.859 16.645 75.366 15.753 73.176 L 15.657 72.941 C 15.457 72.445 15.273 71.954 15.1 71.493 C 14.37 69.559 13.843 68.161 13.145 68.161 C 12.688 68.161 12.245 68.801 11.748 70.134 C 9.241 76.976 7.455 78.032 6.178 78.19 L 5.017 78.19 C 4.99 78.19 4.965 78.202 4.947 78.221 C 4.928 78.241 4.917 78.269 4.917 78.298 C 4.917 78.325 4.928 78.352 4.947 78.372 C 4.965 78.393 4.99 78.404 5.017 78.404 L 21.276 78.404 C 21.303 78.404 21.328 78.393 21.348 78.372 C 21.366 78.352 21.377 78.325 21.377 78.298 C 21.377 78.269 21.366 78.241 21.348 78.221 C 21.328 78.202 21.303 78.19 21.276 78.19 Z M 8.038 78.19 L 6.967 78.19 C 7.359 78.012 7.72 77.765 8.038 77.46 L 8.038 78.19 Z M 10.548 78.19 L 8.238 78.19 L 8.238 77.26 C 9.008 76.469 9.768 75.26 10.548 73.588 L 10.548 78.19 Z M 13.036 78.19 L 10.746 78.19 L 10.746 73.152 C 11.146 72.281 11.534 71.299 11.944 70.193 C 12.355 69.087 12.715 68.486 13.041 68.376 L 13.036 78.19 Z M 15.569 73.28 L 15.569 78.19 L 13.235 78.19 L 13.235 68.37 C 13.77 68.516 14.302 69.928 14.915 71.554 C 15.115 72.099 15.34 72.682 15.58 73.261 L 15.569 73.28 Z" style=""/>
</svg>